<svg width="83" height="39" viewBox="0 0 83 39" fill="none" xmlns="http://www.w3.org/2000/svg">
<g clip-path="url(#clip0)">
<path d="M73.4373 7H67.3658L71.54 13.1308H83L73.4373 7Z" fill="#94FCFC"/>
<path d="M82.9999 13.1308H71.5398L76.8524 21.2056L82.9999 13.1308Z" fill="#5FBAE6"/>
<path d="M76.8526 21.2056L71.54 13.1308L63.0399 39L76.8526 21.2056Z" fill="#2395D0"/>
<path d="M9.23523 18.0856H5.92709V28.9565H2.10518V18.0856H0V16.288L2.10518 15.2853V14.2826C2.10518 12.7255 2.49781 11.5883 3.28308 10.8709C4.06835 10.1535 5.32561 9.7948 7.05486 9.7948C8.37478 9.7948 9.5485 9.98638 10.576 10.3695L9.59863 13.1087C8.83007 12.8722 8.11999 12.754 7.46838 12.754C6.92538 12.754 6.53275 12.913 6.29048 13.2309C6.04822 13.5407 5.92709 13.9402 5.92709 14.4293V15.2853H9.23523V18.0856Z" fill="#111111"/>
<path d="M19.3128 28.9565L18.5735 27.0978H18.4732C17.83 27.8886 17.1659 28.4388 16.4808 28.7486C15.8042 29.0502 14.9187 29.2011 13.8243 29.2011C12.4793 29.2011 11.4184 28.8261 10.6415 28.0761C9.87291 27.3261 9.48863 26.2581 9.48863 24.8723C9.48863 23.4212 10.0066 22.3532 11.0425 21.6684C12.0867 20.9755 13.6572 20.5924 15.7541 20.519L18.185 20.4456V19.8464C18.185 18.4606 17.4582 17.7676 16.0047 17.7676C14.8852 17.7676 13.5695 18.0978 12.0575 18.7581L10.7918 16.2391C12.4041 15.4157 14.1919 15.004 16.155 15.004C18.0347 15.004 19.4757 15.4035 20.4782 16.2024C21.4806 17.0013 21.9819 18.216 21.9819 19.8464V28.9565H19.3128ZM18.185 22.6223L16.7064 22.6712C15.5953 22.7038 14.7683 22.8994 14.2253 23.2581C13.6823 23.6168 13.4108 24.163 13.4108 24.8967C13.4108 25.9483 14.029 26.4742 15.2654 26.4742C16.1509 26.4742 16.8568 26.2255 17.3831 25.7282C17.9177 25.2309 18.185 24.5706 18.185 23.7473V22.6223Z" fill="#111111"/>
<path d="M30.081 29.2011C25.7203 29.2011 23.5399 26.8655 23.5399 22.1943C23.5399 19.8709 24.133 18.0978 25.3193 16.875C26.5055 15.644 28.2055 15.0285 30.4193 15.0285C32.04 15.0285 33.4935 15.3383 34.78 15.9578L33.6523 18.8437C33.0508 18.6073 32.4911 18.4157 31.9731 18.269C31.4552 18.1141 30.9373 18.0367 30.4193 18.0367C28.4311 18.0367 27.437 19.4144 27.437 22.1698C27.437 24.8437 28.4311 26.1807 30.4193 26.1807C31.1545 26.1807 31.8353 26.0869 32.4618 25.8994C33.0884 25.7038 33.7149 25.4021 34.3415 24.9945V28.1861C33.7233 28.5693 33.0967 28.8342 32.4618 28.9809C31.8353 29.1277 31.0417 29.2011 30.081 29.2011Z" fill="#111111"/>
<path d="M41.8642 17.682C41.0538 17.682 40.4189 17.9347 39.9595 18.4402C39.5 18.9375 39.2369 19.6467 39.17 20.5679H44.5332C44.5165 19.6467 44.2701 18.9375 43.7939 18.4402C43.3177 17.9347 42.6745 17.682 41.8642 17.682ZM42.403 29.2011C40.1474 29.2011 38.3848 28.5937 37.115 27.379C35.8452 26.1644 35.2103 24.4443 35.2103 22.2187C35.2103 19.928 35.795 18.1589 36.9646 16.9117C38.1425 15.6562 39.7673 15.0285 41.8391 15.0285C43.819 15.0285 45.3603 15.5788 46.463 16.6793C47.5657 17.7799 48.117 19.3002 48.117 21.2405V23.0502H39.0823C39.1241 24.11 39.4457 24.9375 40.0472 25.5326C40.6487 26.1277 41.4924 26.4252 42.5784 26.4252C43.4222 26.4252 44.22 26.3396 44.9718 26.1684C45.7237 25.9973 46.5089 25.7242 47.3276 25.3492V28.235C46.6593 28.5611 45.945 28.8016 45.1848 28.9565C44.4246 29.1195 43.4973 29.2011 42.403 29.2011Z" fill="#111111"/>
<path d="M56.102 26.2296C56.7703 26.2296 57.5723 26.0869 58.5079 25.8016V28.5774C57.5556 28.9932 56.386 29.2011 54.9993 29.2011C53.4705 29.2011 52.3553 28.8261 51.6535 28.0761C50.9602 27.3179 50.6135 26.1848 50.6135 24.6766V18.0856H48.784V16.5081L50.8891 15.2608L51.9919 12.375H54.4354V15.2853H58.3575V18.0856H54.4354V24.6766C54.4354 25.2065 54.5857 25.5978 54.8865 25.8505C55.1956 26.1032 55.6007 26.2296 56.102 26.2296Z" fill="#111111"/>
</g>
<defs>
<clipPath id="clip0">
<rect width="83" height="39" fill="white"/>
</clipPath>
</defs>
</svg>
